<svg xmlns="http://www.w3.org/2000/svg" xmlns:xlink="http://www.w3.org/1999/xlink" width="283.118" height="58.354" viewBox="0 0 283.118 58.354">
  <defs>
    <linearGradient id="linear-gradient" x1="0.141" y1="0.5" x2="40.862" y2="0.5" gradientUnits="objectBoundingBox">
      <stop offset="0" stop-color="#174bd5"/>
      <stop offset="0.99" stop-color="#00a9dc"/>
    </linearGradient>
    <linearGradient id="linear-gradient-2" x1="-2.368" x2="38.353" xlink:href="#linear-gradient"/>
    <linearGradient id="linear-gradient-3" x1="-1.032" x2="7.973" xlink:href="#linear-gradient"/>
    <linearGradient id="linear-gradient-4" x1="-1.876" x2="5.723" xlink:href="#linear-gradient"/>
    <linearGradient id="linear-gradient-5" x1="-2.998" x2="4.598" xlink:href="#linear-gradient"/>
    <linearGradient id="linear-gradient-6" x1="-9.608" x2="7.771" xlink:href="#linear-gradient"/>
    <linearGradient id="linear-gradient-7" x1="-25.731" x2="14.99" xlink:href="#linear-gradient"/>
    <linearGradient id="linear-gradient-8" x1="-8.245" x2="2.155" xlink:href="#linear-gradient"/>
    <linearGradient id="linear-gradient-9" x1="-1.938" y1="0.499" x2="0.963" y2="0.499" xlink:href="#linear-gradient"/>
  </defs>
  <g id="Layer_2" data-name="Layer 2" transform="translate(200 337)">
    <g id="Layer_1" data-name="Layer 1" transform="translate(-200 -337)">
      <path id="Path_1" data-name="Path 1" d="M0,0V46.819H6.841V0Z" fill="url(#linear-gradient)"/>
      <path id="Path_2" data-name="Path 2" d="M22.3,0V6.841h6.841V0Zm0,11.428v35.4h6.841v-35.4Z" transform="translate(-5.139)" fill="url(#linear-gradient-2)"/>
      <path id="Path_3" data-name="Path 3" d="M68.933,18.775a14.791,14.791,0,0,0-21.547,0A14.768,14.768,0,0,0,42.73,29.549V50.073H49.6V29.557a8.519,8.519,0,0,1,14.621-6.026,8.211,8.211,0,0,1,2.57,6.026V50.073h6.872V29.557A14.806,14.806,0,0,0,68.933,18.775Z" transform="translate(-9.847 -3.254)" fill="url(#linear-gradient-3)"/>
      <path id="Path_4" data-name="Path 4" d="M120.326,31.939a12.19,12.19,0,0,1-3.247,8.411,10.45,10.45,0,0,1-8.088,3.486,11.335,11.335,0,0,1-7.3-2.616l24.217-15.745a18.9,18.9,0,0,0-6.857-8.288,17.915,17.915,0,0,0-10.166-3.078A17.484,17.484,0,0,0,95.962,19.5a17.769,17.769,0,0,0-5.333,13,17.384,17.384,0,0,0,5.387,12.913,17.876,17.876,0,0,0,13,5.256A17.261,17.261,0,0,0,122,45.2a18.577,18.577,0,0,0,5.287-13.236Zm-22.817.554a11.166,11.166,0,0,1,3.317-8.1,10.843,10.843,0,0,1,8.073-3.44,11.435,11.435,0,0,1,7.318,2.624L97.978,35.4A10.574,10.574,0,0,1,97.509,32.494Z" transform="translate(-20.886 -3.251)" fill="url(#linear-gradient-4)"/>
      <path id="Path_5" data-name="Path 5" d="M175.4,19.506a18.223,18.223,0,0,0-25.872,0,17.561,17.561,0,0,0-5.387,12.9,17.846,17.846,0,0,0,5.171,12.844,17.407,17.407,0,0,0,24.625.6v4.225h6.872v-17.7a17.592,17.592,0,0,0-5.41-12.867Zm-4.856,20.985A11.443,11.443,0,0,1,151.027,32.4a10.966,10.966,0,0,1,3.363-8.034,11.427,11.427,0,1,1,16.16,16.16Z" transform="translate(-33.218 -3.254)" fill="url(#linear-gradient-5)"/>
      <path id="Path_6" data-name="Path 6" d="M206.184,18.706a14.36,14.36,0,0,0-4.794,10.851V50.073h6.872V29.557a7.872,7.872,0,0,1,2.686-6.156,9.235,9.235,0,0,1,6.472-2.447V14.12a16.076,16.076,0,0,0-11.235,4.586Z" transform="translate(-46.412 -3.254)" fill="url(#linear-gradient-6)"/>
      <path id="Path_7" data-name="Path 7" d="M230,0V46.819h6.841V0Z" transform="translate(-53.005)" fill="url(#linear-gradient-7)"/>
      <path id="Path_8" data-name="Path 8" d="M291.69,26.8a11.967,11.967,0,0,1,1.9-2.432,11.3,11.3,0,0,1,16.16,0,11.682,11.682,0,0,1,1.839,2.355,19.4,19.4,0,0,1,3.124-6.333l.323-.439-.431-.446a18.223,18.223,0,0,0-25.872,0q-.254.254-.485.508l.323.446A19.592,19.592,0,0,1,291.69,26.8Z" transform="translate(-66.43 -3.254)" fill="url(#linear-gradient-8)"/>
      <path id="Path_9" data-name="Path 9" d="M333.889,19.507a18.192,18.192,0,0,0-25.841,0c-.146.146-.292.3-.431.454a18.825,18.825,0,0,0-1.485,1.762,17.11,17.11,0,0,0-1.454,2.309c-.139.262-.262.531-.385.77a7.907,7.907,0,0,0-.331.77c-.123.331-.246.654-.362.985s-.162.516-.239.77a2.253,2.253,0,0,1-.092.339l-.215.877a3.775,3.775,0,0,1-.085.485c-.023.169-.085.439-.115.67s-.077.654-.1.985-.062.708-.069,1.07v1.516a10.773,10.773,0,0,1-2.255,5.956,13.445,13.445,0,0,1-1.085,1.254,11.012,11.012,0,0,1-8.088,3.348,11.166,11.166,0,0,1-4.533-.908l-.169-.069a11.4,11.4,0,0,1-3.363-2.37,11.771,11.771,0,0,1-1.054-1.2c-.131-.162-.246-.346-.369-.531a13.259,13.259,0,0,1-2.032-7.418,6.241,6.241,0,0,0-.3-2.439,16.93,16.93,0,0,0-1.277-4.086s-.138-.316-.431-.831l-.069-.139a18.85,18.85,0,0,0-1.308-2.055h0a22.564,22.564,0,0,0-1.478-1.793h0c-.154-.169-.316-.331-.485-.5a19.6,19.6,0,0,0-1.77-1.539c-.277-.215-.562-.431-.862-.639s-.616-.431-.947-.631l-.069-.038H270.7a3.455,3.455,0,0,0-.362-.2,18.3,18.3,0,0,0-21.824,3.078,17.607,17.607,0,0,0-5.387,12.9,18.315,18.315,0,0,0,31.228,12.913q.254-.254.485-.508l-.323-.439a19.339,19.339,0,0,1-3.078-6.349,12.26,12.26,0,0,1-1.916,2.47,11.45,11.45,0,1,1,0-16.122,12.745,12.745,0,0,1,1.093,1.254h0a11.88,11.88,0,0,1,.716,1.077V26.8a15.514,15.514,0,0,1,1.539,6.456,4.387,4.387,0,0,0,.077.646,17.053,17.053,0,0,0,.962,4.617h0a.735.735,0,0,0,.123.331v.069c.123.323.262.654.408.97a.2.2,0,0,0,0,.062q.231.477.485.947c.239.439.5.87.77,1.293a16.468,16.468,0,0,0,6.518,6.156h.108a18.715,18.715,0,0,0,17.976-.215,18.239,18.239,0,0,0,2.255-1.539,16.516,16.516,0,0,0,1.539-1.347c.215-.215.423-.431.623-.654s.4-.446.585-.67c.346-.392.662-.816.962-1.231a9.974,9.974,0,0,0,.669-1.031c.115-.177.223-.362.331-.554s.269-.493.392-.77.185-.369.269-.562a6.925,6.925,0,0,0,.292-.693,5.854,5.854,0,0,0,.215-.577,2.579,2.579,0,0,0,.169-.485c.062-.169.115-.339.162-.516a.248.248,0,0,0,0-.069c.054-.185.1-.354.146-.531s.054-.254.092-.377a3.161,3.161,0,0,0,.077-.369c.054-.262.1-.523.138-.77s.085-.523.108-.77.062-.531.085-.77,0-.546.046-.816a3.239,3.239,0,0,0,0-.669v-.654a10.774,10.774,0,0,1,1.485-5.048,11.791,11.791,0,0,1,1.832-2.309,11.427,11.427,0,1,1,0,16.16,12.313,12.313,0,0,1-1.832-2.309,18.472,18.472,0,0,1-.877,2.439,20.593,20.593,0,0,1-4.4,6.318,16,16,0,0,1-1.716,1.539l-1.393,1.1v12h6.88V45.849a17.322,17.322,0,0,0,24.525-.6A17.869,17.869,0,0,0,339.145,32.4a17.615,17.615,0,0,0-5.256-12.9Z" transform="translate(-56.031 -3.254)" fill="url(#linear-gradient-9)"/>
    </g>
  </g>
</svg>
